<svg class="titleIcone" viewBox="0 0 11034 2452" fill="rgba(0,0,0,0)"
    xmlns="http://www.w3.org/2000/svg">
    <g id="test">
        <path d="M233 2001V567h619q239 0 372 97 132 96 132 272 0 117-54 197-54 79-148 120t-204 41l35-49q138 0 237 42 98 42 154 125t56 206q0 181-135 283-133 100-404 100H233zm136-664v-124h473q172 0 267-66t95-195q0-130-95-195t-267-65H385v1184h506q189 0 289-64t100-206q0-140-100-204-101-65-289-65H369z" stroke="white" stroke-width="5" />
        <path d="M170 584q0-42 31-73 30-30 75-30t76 29 31 72q0 46-30 76t-77 30q-45 0-75-30-31-31-31-74zm33 1417V926h145v1075H203z" stroke="white" stroke-width="5" transform="translate(1500)" />
        <path d="M94 1462q0-159 69-282 70-125 188-194 119-70 270-70 152 0 269 68t185 193 68 285q0 14-1 22t-1 23H205v-108h858l-57 43q0-114-51-208-49-90-136-142t-198-52q-109 0-199 52-87 50-137 143-49 91-49 211v23q0 123 54 216t151 145 223 52q96 0 183-35 85-34 146-106l82 94q-73 87-179 131-108 45-237 45-167 0-294-70t-199-195-72-284z" stroke="white" stroke-width="5" transform="translate(2000)" />
        <path d="M203 2001V926h139v295l-23-56q51-117 164-183t269-66q130 0 230 50 99 49 156 152 56 100 56 258v625h-145v-610q0-171-85-257-86-87-239-87-115 0-200 46-84 46-131 133-46 86-46 210v565H203z" stroke="white" stroke-width="5" transform="translate(3200)" />
        <path d="M2 926h152l438 997h-72l445-997h143L629 2001H479z" stroke="white" stroke-width="5" transform="translate(4700)" />
        <path d="M94 1462q0-159 69-282 70-125 188-194 119-70 270-70 152 0 269 68t185 193 68 285q0 14-1 22t-1 23H205v-108h858l-57 43q0-114-51-208-49-90-136-142t-198-52q-109 0-199 52-87 50-137 143-49 91-49 211v23q0 123 54 216t151 145 223 52q96 0 183-35 85-34 146-106l82 94q-73 87-179 131-108 45-237 45-167 0-294-70t-199-195-72-284z" stroke="white" stroke-width="5" transform="translate(6000)" />
        <path d="M203 2001V926h139v295l-23-56q51-117 164-183t269-66q130 0 230 50 99 49 156 152 56 100 56 258v625h-145v-610q0-171-85-257-86-87-239-87-115 0-200 46-84 46-131 133-46 86-46 210v565H203z" stroke="white" stroke-width="5" transform="translate(7200)" />
        <path d="M193 1550V926h145v608q0 173 85 259 85 87 239 87 113 0 195-46 85-48 127-134 44-90 44-211V926h146v1075h-140v-295l23 53q-52 121-159 186-108 66-251 66-137 0-239-51-101-51-159-154-56-100-56-256z" stroke="white" stroke-width="5" transform="translate(8400)" />
        <path d="M94 1462q0-159 69-282 70-125 188-194 119-70 270-70 152 0 269 68t185 193 68 285q0 14-1 22t-1 23H205v-108h858l-57 43q0-114-51-208-49-90-136-142t-198-52q-109 0-199 52-87 50-137 143-49 91-49 211v23q0 123 54 216t151 145 223 52q96 0 183-35 85-34 146-106l82 94q-73 87-179 131-108 45-237 45-167 0-294-70t-199-195-72-284z" stroke="white" stroke-width="5" transform="translate(9700)" />
    </g>
</svg>